# xmcd CD database file
#
# Track frame offsets:
#	150
#	18762
#	38360
#	62172
#	82970
#	106545
#	129360
#	149730
#	172515
#	192507
#	218760
#	236375
#	258565
#	276197
#
# Disc length: 4039 seconds
#
# Revision: 0
# Processed by: cddbd v1.5.1PL0 Copyright (c) Steve Scherf et al.
# Submitted via: CDex 1.51
#
DISCID=b10fc50e
DTITLE=Nancy Wilson - Best Collection
DYEAR=1986
DGENRE=Jazz
TTITLE0=I Believe in You
TTITLE1=Feel Like Makin' Love
TTITLE2=He's Gone
TTITLE3=Casablanca
TTITLE4=Our Lovely Days
TTITLE5=Just the Way You Are
TTITLE6=Life Begins with You
TTITLE7=Dindi
TTITLE8=Just to Keep You in My Life
TTITLE9=Everything Must Change
TTITLE10=Your Eyes
TTITLE11=Careless Whisper
TTITLE12=Winter Green and Summer Blue
TTITLE13=Just to Keep You Satisfied
EXTD=YEAR: 1986
EXTT0=
EXTT1=
EXTT2=
EXTT3=
EXTT4=
EXTT5=
EXTT6=
EXTT7=
EXTT8=
EXTT9=
EXTT10=
EXTT11=
EXTT12=
EXTT13=
PLAYORDER=
